<?xml version="1.0" encoding="utf-8" ?>
<svg xmlns="http://www.w3.org/2000/svg" xmlns:xlink="http://www.w3.org/1999/xlink" width="512" height="512">
	<path fill="white" transform="scale(0.666667 0.666667)" d="M-0 -0L768 0L768 768L-0 768L0 -0Z"/>
	<path fill="#F04E37" transform="scale(0.666667 0.666667)" d="M458.017 665.718C458.589 668.853 457.308 673.188 457.029 676.487C456.095 687.537 454.743 698.927 455.556 710.016L444.938 712.47C444.497 712.424 444.157 712.258 443.749 712.093C443.51 708.993 443.322 705.781 443.795 702.694C444.595 697.477 446.727 692.361 448.738 687.515L458.017 665.718Z"/>
	<path fill="#F04E37" transform="scale(0.666667 0.666667)" d="M445.032 540.109L446.223 541.143C448.328 543.108 450.088 545.685 451.671 548.082C460.112 560.866 462.472 577.671 462.831 592.731C463.463 619.244 453.941 641.778 435.653 660.9C421.345 675.861 404.788 688.766 388.366 701.311C380.742 707.134 372.398 714.258 363.514 717.97C357.658 720.418 351.701 720.742 345.452 720.882L329.985 720.419L330.268 694.227C330.268 693.32 329.801 689.609 330.071 689.038C330.272 688.613 334.519 686.384 335.214 685.964L357.446 671.647L401.242 637.885L423.592 618.087C428.255 613.589 432.931 609.093 436.746 603.823C440.705 598.354 444.035 592.125 445.706 585.555C447.998 576.542 447.404 566.706 446.749 557.509C446.332 551.659 445.99 545.911 445.032 540.109Z"/>
	<path fill="#F04E37" transform="scale(0.666667 0.666667)" d="M407.359 143.415L420.847 148.042L401.238 195.806C425.355 200.313 447.896 214.449 463.582 233.304C471.138 242.388 477.899 252.779 482.583 263.641C490.888 282.901 493.332 304.177 491.347 324.937C488.908 350.459 479.044 373.561 461.776 392.607C459.604 395.002 457.232 398.303 454.785 400.318C452.996 398.767 451.24 397.106 449.238 395.832L448.95 395.655L460.852 379.336C470.974 362.354 478.17 343.136 479.446 323.282C480.296 310.058 478.664 297.253 475.431 284.445C468.351 260.588 454.756 241.681 434.335 227.388C411.136 211.152 383.802 205.192 355.98 210.182C329.198 214.985 304.61 232.568 289.155 254.691C283.756 250.546 277.353 247.018 271.372 243.755C282.156 227.02 296.26 210.767 313.179 199.978C331.29 188.428 351.202 182.682 372.645 182.604C378.939 182.581 385.513 182.866 391.667 184.224L407.359 143.415Z"/>
	<path fill="#F04E37" transform="scale(0.666667 0.666667)" d="M430.481 413.517C435.615 418.712 440.399 424 446.268 428.41C451.389 432.259 457.074 435.302 462.05 439.346C457.967 445.878 453.294 451.808 449.58 458.637C442.673 471.335 437.608 485.627 434.745 499.798L427.153 546.333C424.16 560.747 419.265 575.122 411.559 587.725C396.778 611.901 371.776 630.487 348.381 645.79C342.047 650.014 335.372 654.433 328.485 657.662L328.49 622.346C328.493 610.461 328.491 598.711 329.935 586.894C331.818 571.489 335.603 556.971 340.433 542.25C350.118 512.735 363.687 485.193 382.142 460.157C388.374 451.703 394.988 443.338 402.431 435.912C407.418 430.936 412.849 426.096 418.526 421.918C422.461 419.023 426.629 416.528 430.481 413.517Z"/>
	<path fill="#F04E37" transform="scale(0.666667 0.666667)" d="M369.572 229.283C390.785 228.36 411.488 236.436 427.062 250.829C444.141 266.613 455.387 289.847 456.09 313.188C456.856 338.625 447.127 364.001 429.758 382.49C415.404 397.769 395.15 407.475 374.156 408.106C353.201 407.987 333.638 400.206 317.851 386.457C299.524 370.495 289.602 347.236 287.978 323.232C286.369 299.468 293.388 276.748 309.26 258.823C324.861 241.206 346.072 230.664 369.572 229.283Z"/>
	<path fill="white" transform="scale(0.666667 0.666667)" d="M381.785 262.53C386.306 263.618 391.018 265.375 395.044 267.713C398.896 269.948 402.367 272.847 406.218 275.144L400.82 279.605L395.783 285.059C391.71 282.275 387.502 278.878 382.706 277.501L382.233 277.371L381.785 262.53Z"/>
	<path fill="white" transform="scale(0.666667 0.666667)" d="M363.625 262.312C364.301 262.2 363.925 262.187 364.74 262.5L365.287 277.612C359.573 279.108 354.105 281.639 349.22 284.939C348.025 283.3 346.573 281.856 345.189 280.376L338.627 273.866C342.784 271.095 347.085 268.439 351.689 266.465C355.528 264.818 359.653 263.615 363.625 262.312Z"/>
	<path fill="white" transform="scale(0.666667 0.666667)" d="M399.936 345.895C402.685 349.25 407.127 352.06 410.612 354.635C404.305 359.746 398.705 364.389 391.164 367.618L382.966 370.331L382.818 356.522C389.222 353.686 394.576 350.404 399.936 345.895Z"/>
	<path fill="white" transform="scale(0.666667 0.666667)" d="M345.167 344.923C349.757 349.975 356.791 352.936 362.66 356.255L362.421 368.805L353.721 366.827C345.718 364.189 340.672 359.495 334.293 354.188L345.167 344.923Z"/>
	<path fill="white" transform="scale(0.666667 0.666667)" d="M329.599 284.95L339.915 294.243C337.265 298.468 335.266 302.577 333.692 307.32L335.896 309.103C336.807 310.131 336.744 313.5 336.547 314.848C336.351 316.185 335.928 316.787 334.859 317.573C334.194 318.063 333.902 318.469 333.507 319.211C333.088 323.517 335.828 328.285 338.475 331.555L338.788 331.933L332.107 337.09L328.256 340.404C324.181 336.394 321.048 331.844 318.364 326.812C318.136 326.386 317.872 325.966 317.758 325.49C317.116 322.808 317.476 319.086 317.471 316.306C317.463 312.718 317.207 308.388 317.983 304.886C318.431 302.861 319.587 300.866 320.545 299.032C323.133 294.077 326.387 289.511 329.599 284.95Z"/>
	<path fill="white" transform="scale(0.666667 0.666667)" d="M415.016 285.659C416.949 289.742 419.638 293.637 421.817 297.623C422.75 299.329 423.915 301.166 424.353 303.072C425.398 307.623 424.918 313.604 425.092 318.328C425.139 319.599 424.959 321.347 425.326 322.532C425.652 323.588 426.485 324.698 427.076 325.631C424.562 332.106 420.43 338.29 416.541 344.022L411.585 339.709L404.428 333.212C406.45 329.128 407.889 325.302 408.998 320.87C407.78 319.825 406.897 318.684 405.957 317.389C405.669 315.397 404.829 310.868 405.778 309.188C406.943 309.094 407.843 308.857 408.938 308.455L409.217 307.688C408.441 302.5 406.64 298.432 403.441 294.299L403.201 293.993C407.524 291.658 411.559 289.178 415.016 285.659Z"/>
	<path fill="white" transform="scale(0.666667 0.666667)" d="M369.875 294.073C374.547 293.763 378.195 294.539 382.237 297.031C387.362 300.19 391.049 305.404 392.221 311.329C393.635 318.477 391.52 326.76 387.254 332.613C383.858 337.273 379.406 340.231 373.737 341.224C369.666 341.268 366.594 340.616 363.032 338.527C356.691 334.81 352.623 328.917 350.835 321.84C349.471 316.446 349.837 311.174 352.7 306.328C356.592 299.739 362.602 295.978 369.875 294.073Z"/>
	<path fill="#F04E37" transform="scale(0.666667 0.666667)" d="M372.596 31.6875C380.546 31.2494 388.561 31.5706 396.511 31.848C422.298 32.7476 447.965 36.225 472.921 42.823C517.416 54.5866 559.142 77.0472 595 105.637L609.004 116.961C623.214 129.629 636.657 144.036 649.031 158.498C656.899 167.694 664.682 176.874 671.771 186.697C678.171 195.563 683.895 204.904 689.368 214.364C704.505 240.527 714.717 269.347 721.341 298.763C726.233 320.482 729.564 342.463 730.421 364.736C731.73 398.773 727.579 434.078 718.702 466.941C713.121 487.605 705.726 508.892 696.033 528C675.491 568.499 644.91 603.813 609.849 632.362C603.149 637.818 596.512 643.339 589.434 648.308C582.666 653.058 575.587 657.232 568.425 661.352C565.621 654.171 561.964 645.871 556.567 640.238L556.233 640.266C551.847 640.711 547.381 643.03 543.596 645.157C531.475 651.968 521.988 660.757 513.09 671.335C508.74 676.506 503.022 683.51 503.788 690.679L503.879 691.427C494.676 696.083 484.493 699.396 474.713 702.638L475.415 684.653L477.449 641.657C478.809 621.762 480.292 601.789 478.441 581.871C480.705 583.095 483.337 583.902 485.733 584.867C500.301 590.735 517.031 594.672 532.754 592.04C560.079 587.466 584.224 571.582 603.433 552.192C607.663 547.922 611.902 543.767 615.415 538.862C611.997 536.202 608.277 533.971 605.219 530.869L604.869 530.508C592.925 543.029 580.324 554.165 565.312 562.901C544.788 574.846 520.81 579.81 497.289 575.453C490.378 574.172 483.742 571.886 476.967 570.081C475.151 559.704 471.923 549.595 467.852 539.895C464.019 530.765 459.011 521.771 456.793 512.062C455.104 504.667 455.253 496.759 456.27 489.276C458.544 472.531 465.303 457.504 475.457 444.079C478.717 439.769 481.937 435.733 486.254 432.448C484.061 430.395 482.396 428.03 480.453 425.76C502.459 410.624 515.355 388.43 529.05 366.236L517.837 362.712C526.744 331.192 528.161 295.501 518.798 263.846C520.283 262.359 522.799 261.179 524.62 260.062L540.17 251.062C536.883 242.197 532.646 234.01 527.966 225.82L502.967 242.047C500.956 237.456 497.487 233.514 495.012 229.151C502.836 224.458 508.724 217.063 516.803 212.488C515.123 209.176 512.465 206.215 510.161 203.319C498.603 188.784 484.965 174.68 469.097 164.914L465.936 162.942L457.122 179.797C455.691 182.776 454.088 185.902 453.185 189.082L453.077 189.484C449.314 186.549 445.026 184.158 440.729 182.105L458.782 143.491C443.53 133.199 424.816 125.87 406.591 123.188C393.645 121.282 380.033 121.506 367.011 122.526C355.982 123.39 345.177 125.158 334.312 127.194C319.568 129.957 304.527 133.685 290.517 139.131C263.865 149.493 240.77 165.787 218.038 182.803L190.581 203.333L166.221 221.921C161.378 225.611 155.795 228.983 151.832 233.622C151.184 236.009 151.381 239.533 151.711 242L151.802 242.625C152.044 244.41 152.273 246.277 153.188 247.868C154.716 250.526 157.909 252.512 160.844 253.165C166.888 254.511 173.3 251.545 178.241 248.362C168.408 265.737 161.9 287.602 164.988 307.628C165.823 313.049 168.368 318.213 169.078 323.519C169.585 327.303 166.394 333.071 164.897 336.59C158.864 350.768 151.604 364.597 141.151 376.08C136.5 381.189 130.39 385.869 126.507 391.542C125.449 393.086 125.039 394.753 125.437 396.605C125.914 398.82 127.304 400.492 129.002 401.924C134.627 406.67 141.315 406.194 148.194 406.659C150.462 406.813 153.21 406.96 155.132 408.294C156.064 408.941 156.891 409.907 157.102 411.048C157.479 413.092 156.488 416.072 156.079 418.122C155.115 422.959 153.952 429.038 154.971 433.93C156.594 441.727 165.084 444.64 170.932 448.63L164.275 449.361C160.743 449.876 156.76 451.725 154.625 454.689C153.733 455.926 153.394 457.146 153.244 458.667C152.531 465.864 161.99 466.335 164.486 471.502C165.665 473.941 163.843 480.839 163.468 483.59C163.153 485.898 162.955 488.265 162.868 490.594C162.744 493.935 162.986 497.477 163.592 500.766C164.779 507.217 167.338 513.693 170.847 519.23C173.96 524.143 177.879 528.774 183.252 531.271C191.248 534.987 200.938 534.108 209.436 533.283L231.419 530.918C243.167 529.671 258.78 527.173 269.067 534.418C275.942 539.26 278.923 547.659 281.432 555.318C284.634 565.089 286.702 575.02 288.419 585.139L227.776 563.796C227.053 565.221 227.456 569.54 227.426 571.227L227.121 596.674C227.059 600.131 227.339 604.056 226.754 607.429C226.363 609.683 224.213 612.148 223.312 614.344L211.148 646.092C208.907 651.308 206.629 656.512 203.268 661.117C179.543 649.164 158.106 633.28 138.571 615.341C125.133 603.002 111.935 589.216 100.826 574.724L90.547 559.83C83.6089 549.483 77.0053 538.91 71.3734 527.781C50.9302 487.383 40.3441 441.768 38.4449 396.633C37.3441 370.474 38.2467 343.243 42.5183 317.369C50.687 267.888 71.9707 219.423 101.676 179.104C112.918 163.846 125.583 149.932 138.422 136.021C144.249 129.707 150.705 123.91 157.094 118.172C199.921 79.708 253.285 51.5853 309.569 39.1569C330.229 34.5947 351.487 32.5575 372.596 31.6875Z"/>
	<path fill="white" transform="scale(0.666667 0.666667)" d="M557.169 119.777L603.125 120.043C608.699 120.84 637.747 153.008 642.288 158.625C643.025 159.536 644.56 161.307 644.917 162.421C645.448 164.072 644.975 168.024 645.001 169.864L645.291 187.961C645.32 190.808 645.579 193.954 645.196 196.776C644.926 198.77 643.851 200.474 642.652 202.048C637.528 208.773 630.617 214.853 624.709 220.934C619.308 226.494 614.01 233.128 607.847 237.808L607.497 237.95L606.938 238.152C603.8 239.312 599.665 238.859 596.355 238.859L578.393 238.857C571.942 238.875 565.286 239.435 558.867 238.874C550.237 232.719 543.203 222.94 536.025 215.143C531.174 209.873 525.275 204.6 521.182 198.738C520.231 191.812 520.956 184.162 520.95 177.157L520.925 163.723C520.926 161.263 520.536 158.121 521.553 155.848C522.516 153.697 524.798 151.634 526.399 149.949L536.156 139.699C541.492 134.023 546.681 127.572 552.508 122.438C553.924 121.19 555.381 120.392 557.169 119.777Z"/>
	<path fill="#F04E37" transform="scale(0.666667 0.666667)" d="M581.707 159.562L583.125 159.39C587.18 160.934 590.268 163.983 593.581 166.692C596.21 168.842 599.329 171.058 601.245 173.891C602.59 175.879 603.841 180.663 602.927 183.066C601.974 185.572 598.958 187.752 596.991 189.519C592.786 193.295 588.69 197.507 583.68 200.195L583.454 200.068C580.015 198.24 576.924 195.367 573.804 193.012C570.036 190.168 565.936 187.736 562.711 184.25C562.22 181.194 562.866 177.501 563.311 174.438C566.886 170.753 571.025 167.712 575.03 164.517C577.192 162.792 579.189 160.761 581.707 159.562Z"/>
</svg>
