<svg xmlns:xlink="http://www.w3.org/1999/xlink" xmlns="http://www.w3.org/2000/svg" width="90" height="72" viewBox="0 0 90 72"><g transform="translate(-194 -2735)"><rect width="90" height="72" transform="translate(194 2735)" fill="none"/><g transform="translate(210.251 2736.272)"><g transform="translate(0 0)"><path d="M5264,2198.56s7.885-10.894,12.056-6.64a1.4,1.4,0,0,1-.919,2.308s.939,2.157-1.27,2.24a2.072,2.072,0,0,1-.96,3.218,11.591,11.591,0,0,1-6.278.564S5264.02,2199.591,5264,2198.56Z" transform="translate(-5222.746 -2176.019)" fill="#aaa" fill-rule="evenodd"/><g transform="translate(1.853 5.233)"><path d="M5196.539,2178.854c-.184.321.206.748.511.8a1.149,1.149,0,0,0,.286-.007c.277-.05.417-.331.586-.541a3.65,3.65,0,0,0,.811-1.107c-.275-.35-.979-.213-1.312-.026A3.2,3.2,0,0,0,5196.539,2178.854Z" transform="translate(-5194.671 -2175.424)" fill="#009dff" fill-rule="evenodd"/><path d="M5203.192,2175.017a30.049,30.049,0,0,1,3.539-1.181c1.062-.252,2.83-.737,3.281.636.569,1.729-1.366,3.479-2.518,4.459a11.665,11.665,0,0,1-3.312,1.715,12.3,12.3,0,0,1-6.689.74c-.81-.132-1.629-.443-1.667-1.38-.035-.872.84-1.658,1.485-2.123a10.492,10.492,0,0,1,2.4-1.428C5200.1,2176.277,5202.744,2175.183,5203.192,2175.017Z" transform="translate(-5194.375 -2173.543)" fill="#ffe539" fill-rule="evenodd"/><path d="M5198.465,2179.714a6.544,6.544,0,0,1-1.8-.924c-.323-.224-.587-.559-.981-.371-.5.236-.533,1.054-.5,1.512.049.719.23,1.478.327,2.165a1.213,1.213,0,0,0,.73,1.081c1.329.369,2.663-1.343,2.391-2.573" transform="translate(-5194.088 -2175.681)" fill="#ffe539" fill-rule="evenodd"/><path d="M5206.322,2179.174a29.016,29.016,0,0,1-8.765,2.6,9.447,9.447,0,0,1-1.156.148,1.21,1.21,0,0,1-.27-.309c.062,0,.123,0,.182,0a7.6,7.6,0,0,0,1.334-.2c1.122-.248,2.249-.5,3.358-.8a27.048,27.048,0,0,0,5.3-2.064,17.693,17.693,0,0,0,3.923-2.741,2.151,2.151,0,0,1-.025.778c-.079.058-.176.126-.289.219A20.868,20.868,0,0,1,5206.322,2179.174Z" transform="translate(-5194.511 -2174.543)" fill="#009dff" fill-rule="evenodd"/><path d="M5209.014,2178.379a.7.7,0,1,0,.524-.835A.7.7,0,0,0,5209.014,2178.379Z" transform="translate(-5200.213 -2175.309)" fill="#009dff" fill-rule="evenodd"/><path d="M5204.981,2179.828a.7.7,0,1,0,.524-.835A.7.7,0,0,0,5204.981,2179.828Z" transform="translate(-5198.426 -2175.951)" fill="#009dff" fill-rule="evenodd"/><path d="M5201.095,2181.256a.7.7,0,1,0,.524-.836A.7.7,0,0,0,5201.095,2181.256Z" transform="translate(-5196.703 -2176.584)" fill="#009dff" fill-rule="evenodd"/><path d="M5194.622,2180.107c.351-.115.69.353.682.662a1.222,1.222,0,0,1-.065.279c-.1.262-.409.343-.647.465a3.657,3.657,0,0,1-1.248.572c-.287-.341-.012-1,.239-1.291A3.178,3.178,0,0,1,5194.622,2180.107Z" transform="translate(-5193.222 -2176.445)" fill="#009dff" fill-rule="evenodd"/><path d="M5204.706,2182.346a1.6,1.6,0,0,0-.849-.139,4.743,4.743,0,0,0-1.4.359,3.371,3.371,0,0,0-1.1.721c-.446.423-.926.807-1.376,1.232s-.878.832-1.312,1.259c-.343.339-.656.7-.984,1.048-.118.128-.19.182-.2.352-.027.5,1.642.676,2.026.556a44.426,44.426,0,0,0,4.144-1.782,6.048,6.048,0,0,0,1.9-1.727C5206.236,2183.179,5205.057,2182.523,5204.706,2182.346Z" transform="translate(-5195.11 -2177.382)" fill="#009dff" fill-rule="evenodd"/><path d="M5217.6,2175.143c-.3.167-.429.31-.728.07a1.676,1.676,0,0,1-.648-1.482c.969-.222,2.222-.417,2.719.486l-.1.085A6.75,6.75,0,0,1,5217.6,2175.143Z" transform="translate(-5203.417 -2173.544)" fill="#009dff" fill-rule="evenodd"/></g><path d="M5193.443,2164.823c.066-.883-1.639-.922-1.6-.022a.5.5,0,0,0-.669-.1.652.652,0,0,0-.275.829c-.482.048-.9.265-.9.88s.518.523.974.708c.4.163,3.549.344,3.99,0,.53-.419.156-.826-.084-1.052a1.292,1.292,0,0,0,0-.945A1.012,1.012,0,0,0,5193.443,2164.823Z" transform="translate(-5189.941 -2164.143)" fill="#fff" fill-rule="evenodd"/><path d="M5231.187,2167.688c.076-.769-1.87-.8-1.828-.019a.691.691,0,0,0-.764-.084c-.472.288-.41.593-.314.722-.55.041-1.024.23-1.02.766s.59.457,1.109.616c.46.142,4.048.3,4.553,0,.6-.365.177-.719-.1-.916,0,0,.253-.518,0-.823A1.378,1.378,0,0,0,5231.187,2167.688Z" transform="translate(-5206.458 -2165.452)" fill="#fff" fill-rule="evenodd"/><path d="M5264.261,2179.985a7.141,7.141,0,0,1,1.841,4.087,15.494,15.494,0,0,1,.006,4.483l-7.234-3.1c1.012-.94,3.025-4.331,4.038-5.271C5262.913,2180.185,5263.634,2179.359,5264.261,2179.985Z" transform="translate(-5220.47 -2171.062)" fill="#ccc" fill-rule="evenodd"/><path d="M5226.836,2183.72a26.122,26.122,0,0,1,17.448,1.129c7.545,3.49,12.175,13.379,11.432,21.628-1.035,11.516-12.631,18.219-22.363,16.694-10.226-1.6-19.138-9.49-17.767-22.643.516-4.951,2.189-7.075,4.773-11.161a20.5,20.5,0,0,1,1.354-7.073S5222.356,2179.773,5226.836,2183.72Z" transform="translate(-5201.221 -2171.838)" fill="#aaa" fill-rule="evenodd"/><path d="M5226.841,2183.72a26.12,26.12,0,0,1,17.448,1.129c7.546,3.49,12.176,13.379,11.433,21.628-1.036,11.516-12.14,14.969-21.736,14.345-10.328-.672-19.765-7.141-18.4-20.294.517-4.951,2.191-7.075,4.774-11.161a20.528,20.528,0,0,1,1.355-7.073S5222.36,2179.773,5226.841,2183.72Z" transform="translate(-5201.225 -2171.838)" fill="#ccc" fill-rule="evenodd"/><g transform="translate(44.342 31.754)"><g transform="translate(0 0.79)" opacity="0.15"><path d="M5270.456,2234.79a15.058,15.058,0,0,1,2.486-2.812c.3-.241.632-.6.925-.838a27.859,27.859,0,0,0-3.829,1.3.392.392,0,0,0-.186.12.352.352,0,0,0-.046.2,3.063,3.063,0,0,0,.65,2.032" transform="translate(-5269.659 -2226.386)" fill-rule="evenodd"/><path d="M5269.546,2228.068a11.26,11.26,0,0,1,1.293-5.468,12.945,12.945,0,0,1,2.431,2.207,12.153,12.153,0,0,1,1.5,2.5c-1.179.4-2.609.892-4,1.36a1.706,1.706,0,0,1-.89.134c-.291-.067-.359-.445-.341-.735" transform="translate(-5269.542 -2222.6)" fill-rule="evenodd"/></g><g transform="translate(0.456)"><path d="M5271.276,2233.372a15.063,15.063,0,0,1,2.485-2.812c.3-.241.633-.6.924-.838a28.126,28.126,0,0,0-3.828,1.3.385.385,0,0,0-.186.121.359.359,0,0,0-.047.2,3.056,3.056,0,0,0,.65,2.031" transform="translate(-5270.479 -2224.967)" fill="#f2f2f2" fill-rule="evenodd"/><path d="M5270.366,2226.648a11.264,11.264,0,0,1,1.293-5.468,12.942,12.942,0,0,1,2.43,2.208,12.191,12.191,0,0,1,1.506,2.5c-1.18.4-2.611.893-4,1.36a1.709,1.709,0,0,1-.89.134c-.29-.066-.357-.445-.34-.735" transform="translate(-5270.363 -2221.18)" fill="#fff" fill-rule="evenodd"/></g></g><g transform="translate(31.821 20.412)"><g transform="translate(0 0)"><g transform="translate(0)"><ellipse cx="6.232" cy="7.036" rx="6.232" ry="7.036" transform="translate(0 1.244) rotate(-5.728)" fill="#aaa"/></g><ellipse cx="6.232" cy="7.036" rx="6.232" ry="7.036" transform="translate(0 2.032) rotate(-5.728)" fill="#fff"/></g><ellipse cx="1.564" cy="1.766" rx="1.564" ry="1.766" transform="translate(3.436 8.71) rotate(-5.728)" fill="#404040"/><g transform="translate(13.443 0.043)"><path d="M5278.534,2205.759c.45,2.992-.848,6-3.044,6.093s-4.112-2.284-4.278-5.312,1.472-5.659,3.673-5.654C5276.9,2200.892,5278.093,2202.81,5278.534,2205.759Z" transform="translate(-5271.2 -2200.886)" fill="#aaa" fill-rule="evenodd"/><path d="M5278.534,2207.176c.45,2.992-.848,6-3.044,6.093s-4.112-2.284-4.278-5.313,1.472-5.658,3.673-5.653C5276.9,2202.308,5278.093,2204.227,5278.534,2207.176Z" transform="translate(-5271.2 -2201.514)" fill="#fff" fill-rule="evenodd"/></g><g transform="translate(15.215 5.75)"><path d="M5274.383,2214.625a3.7,3.7,0,0,1,3.967-.956S5275.631,2211.644,5274.383,2214.625Z" transform="translate(-5274.383 -2211.962)" fill="#404040" fill-rule="evenodd"/><path d="M5277.669,2211.337s-3.11-1.234-3.286,2.419c0,0,1.252-2.76,3.286-2.419" transform="translate(-5274.383 -2211.137)" fill="#404040" fill-rule="evenodd"/></g></g><g transform="translate(0 42.31)"><path d="M5213.8,2247.583a.822.822,0,0,1-1.2-1.122l4.717-5.005a.821.821,0,0,1,1.2,1.122Z" transform="translate(-5199.863 -2240.609)" fill="#404040" fill-rule="evenodd"/><path d="M5212.65,2247.609a.779.779,0,0,1,.072-.089l3.7-3.934,1.175,1.15-2.95,3.131A9.273,9.273,0,0,1,5212.65,2247.609Z" transform="translate(-5199.981 -2241.669)" fill="#b8b8b8" fill-rule="evenodd"/><path d="M5190.548,2249.273l8.063-8.41a2.362,2.362,0,0,1,3.331-.068l4.588,4.406a2.364,2.364,0,0,1,.067,3.331l-8.063,8.411a2.361,2.361,0,0,1-3.331.067l-4.589-4.406A2.363,2.363,0,0,1,5190.548,2249.273Z" transform="translate(-5189.894 -2240.142)" fill="#009dff" fill-rule="evenodd"/><path d="M5203.046,2242l.849.814-11.55,11.6-.848-.814Z" transform="translate(-5190.604 -2240.964)" fill="#404040" fill-rule="evenodd"/><path d="M5202.51,2264.616a2.532,2.532,0,1,1-2.284,2.759A2.534,2.534,0,0,1,5202.51,2264.616Z" transform="translate(-5194.468 -2250.986)" fill="#404040" fill-rule="evenodd"/><path d="M5203.506,2266.62a1.413,1.413,0,1,1-1.274,1.541A1.413,1.413,0,0,1,5203.506,2266.62Z" transform="translate(-5195.361 -2251.876)" fill="#787878" fill-rule="evenodd"/><path d="M5200.491,2244.722l2.394-2.493.606,2.542-2.653,1.336Z" transform="translate(-5194.591 -2241.067)" fill="#fff9d5" fill-rule="evenodd"/><path d="M5194.706,2258.273l1.212-1.227a.548.548,0,0,1,.772-.006l.165.161a.55.55,0,0,1,.006.773l-1.21,1.228a.55.55,0,0,1-.773.006l-.165-.161A.55.55,0,0,1,5194.706,2258.273Z" transform="translate(-5191.958 -2247.564)" fill="#b8b8b8" fill-rule="evenodd"/></g><g transform="translate(14.942 35.815)"><g transform="translate(0.379)"><path d="M5229.184,2228.488c-.259-.118-3.126.594-3.91.619a15.955,15.955,0,0,0-4.3.777c-2.93.968-4.021,3.059-3.382,5.76a1.4,1.4,0,0,0,2.441.455s1.321,1.947,2.572.124a2.073,2.073,0,0,0,3.234.907,14.511,14.511,0,0,0,3.874-5.131C5230.728,2229.226,5229.626,2228.69,5229.184,2228.488Z" transform="translate(-5217.414 -2228.474)" fill="#aaa" fill-rule="evenodd"/></g><path d="M5228.882,2228.5s-13.421.848-12.052,6.646a1.4,1.4,0,0,0,2.442.456s1.322,1.947,2.573.124a2.072,2.072,0,0,0,3.233.907,11.584,11.584,0,0,0,3.829-5.008S5229.746,2229.061,5228.882,2228.5Z" transform="translate(-5216.732 -2228.485)" fill="#ccc" fill-rule="evenodd"/></g><g transform="translate(14.461 12.15)"><g transform="translate(0.234 0.703)"><path d="M5251.7,2192.171l-10.585,3.1s2.954,6.818,5.074,6.2,6.042-2.422,6.029-3.662C5252.2,2196.346,5251.7,2192.171,5251.7,2192.171Z" transform="translate(-5227.295 -2189.42)" fill="#aaa" fill-rule="evenodd"/><path d="M5269.221,2187.23l-7.744,2.536s1.974,6.169,4.09,5.742c1.617-.326,4.11-1.383,4.1-2.407C5269.659,2191.891,5268.555,2187.468,5269.221,2187.23Z" transform="translate(-5236.32 -2187.23)" fill="#aaa" fill-rule="evenodd"/><path d="M5258.87,2192.145l1.732-.529.407.991-2,.709Z" transform="translate(-5235.165 -2189.174)" fill="#404040" fill-rule="evenodd"/><path d="M5230.216,2197.746l-13.512,6.819-.417,2.1s.9.318,1.127-1.373l13.651-7.025Z" transform="translate(-5216.288 -2191.891)" fill="#aaa" fill-rule="evenodd"/></g><path d="M5251.28,2190.907l-10.586,3.1s4.051,7.71,6.173,7.093,5.5-2.752,5.487-3.992A55.217,55.217,0,0,0,5251.28,2190.907Z" transform="translate(-5226.874 -2188.156)" fill="#404040" fill-rule="evenodd"/><path d="M5268.8,2185.967l-7.744,2.538s1.973,6.168,4.089,5.741c1.617-.326,4.111-1.382,4.1-2.407C5269.237,2190.628,5268.8,2185.967,5268.8,2185.967Z" transform="translate(-5235.9 -2185.967)" fill="#404040" fill-rule="evenodd"/><path d="M5258.446,2190.883l1.735-.528.407.99-2,.709Z" transform="translate(-5234.741 -2187.912)" fill="#404040" fill-rule="evenodd"/><path d="M5229.8,2196.484l-13.511,6.819-.417,2.1s.905.317,1.128-1.373l13.65-7.026Z" transform="translate(-5215.868 -2190.629)" fill="#404040" fill-rule="evenodd"/><path d="M5245.654,2199.79l-.5-.877,1.115-2.776.879-.25Z" transform="translate(-5228.852 -2190.365)" fill="#fff" fill-rule="evenodd"/><path d="M5247.481,2200.844l-.545-.829,1.726-4.735.879-.25Z" transform="translate(-5229.641 -2189.984)" fill="#fff" fill-rule="evenodd"/><path d="M5264.4,2193.578l-.5-.841.87-2.21.879-.239Z" transform="translate(-5237.163 -2187.883)" fill="#fff" fill-rule="evenodd"/></g><g transform="translate(16.165 47.37)"><path d="M5219.467,2252.562a2.364,2.364,0,0,0-.068-3.331A3.14,3.14,0,0,0,5219.467,2252.562Z" transform="translate(-5218.929 -2249.232)" fill="#b8b8b8" fill-rule="evenodd"/><path d="M5219.708,2253.405a.2.2,0,1,1,.28.024A.2.2,0,0,1,5219.708,2253.405Z" transform="translate(-5219.253 -2250.937)" fill="#404040" fill-rule="evenodd"/><path d="M5219.708,2250.971a.2.2,0,1,1,.28.026A.2.2,0,0,1,5219.708,2250.971Z" transform="translate(-5219.253 -2249.858)" fill="#404040" fill-rule="evenodd"/></g></g></g></g></svg>