<svg xmlns="http://www.w3.org/2000/svg" xmlns:xlink="http://www.w3.org/1999/xlink" width="90" height="72" viewBox="0 0 90 72"><defs><clipPath id="a"><path d="M5424.458,1992.625s-4.768,14.032.626,14.411a1.7,1.7,0,0,0,1.376-2.364,1.78,1.78,0,0,0,1.152-2.6,2.523,2.523,0,0,0,2.075-3.038,10.8,10.8,0,0,0-2.614-5.471S5425.279,1991.912,5424.458,1992.625Z" transform="translate(-5422.513 -1992.446)" fill="none"/></clipPath><clipPath id="b"><path d="M5493.694,1982.012s2.116-1.312,1.073-3.035c-.647-1.067-1.7-.336-2.13.055a16.078,16.078,0,0,1-2.157,1.3l2.9,2.175Z" transform="translate(-5490.479 -1978.422)" fill="none"/></clipPath><clipPath id="c"><rect width="22.801" height="19.328" fill="none"/></clipPath><clipPath id="d"><path d="M5485.614,1938h22.8a.6.6,0,0,1,0,1.208h-22.8a.6.6,0,0,1,0-1.208Z" transform="translate(-5485.011 -1938)" fill="none"/></clipPath><clipPath id="e"><path d="M5485.614,1970.548h22.8a.6.6,0,0,1,0,1.207h-22.8a.6.6,0,0,1,0-1.207Z" transform="translate(-5485.011 -1970.548)" fill="none"/></clipPath><clipPath id="f"><ellipse cx="6.568" cy="6.568" rx="6.568" ry="6.568" fill="none"/></clipPath><clipPath id="g"><path d="M5501.071,1956.562a6.569,6.569,0,0,0,5.864-3.608c.082-.163.189-.415.324-.758l-6.188-2.2,2.473-6.087a9.275,9.275,0,0,0-2.473-.482,6.569,6.569,0,0,0,0,13.137Z" transform="translate(-5494.503 -1943.425)" fill="none"/></clipPath><clipPath id="h"><ellipse cx="4.53" cy="4.53" rx="4.53" ry="4.53" fill="none"/></clipPath><clipPath id="i"><path d="M5498.493,1957.143l.367.112-4.418,16.687-1.588-.486Z" transform="translate(-5492.854 -1957.143)" fill="none"/></clipPath><clipPath id="j"><path d="M5480.506,1987.489s7.3-11.369,11.071-7.57a1.483,1.483,0,0,1-.86,2.343s.837,2.031-1.181,2.307a2.2,2.2,0,0,1-.907,3.238,10.5,10.5,0,0,1-5.737,1.106S5480.509,1988.5,5480.506,1987.489Z" transform="translate(-5480.506 -1979.142)" fill="none"/></clipPath><clipPath id="k"><path d="M5424.8,1972.032a22.915,22.915,0,0,0,.411-2.479l.6-6.207a1.105,1.105,0,0,1,1.368-.988l2.147.468a3.432,3.432,0,0,0,2.284-.441s4.339-2.927,7.688-3.707c3.58-.821,9.168.2,9.168.2a3.467,3.467,0,0,0,2.279-.521l1.735-1.225a1.1,1.1,0,0,1,1.642.379l2.828,5.149a21.436,21.436,0,0,0,1.382,2.108s3.653,4.693,4.5,8.4a19.761,19.761,0,0,1-38.532,8.744C5423.4,1978.029,5424.8,1972.032,5424.8,1972.032Z" transform="translate(-5423.998 -1956.907)" fill="none"/></clipPath><clipPath id="l"><path d="M5447.726,2013.771q-.6.137-1.209.237a19.659,19.659,0,0,1-20.581-10.01,25.9,25.9,0,0,1-2.071-5.776,6.393,6.393,0,0,1,0-2.057,15.5,15.5,0,0,0,3.051,5.846c6.689,8.184,13.049,8.359,19.114,7.054a15.062,15.062,0,0,1,1.7-.226Q5448.131,2013.68,5447.726,2013.771Z" transform="translate(-5423.785 -1996.165)" fill="none"/></clipPath><clipPath id="m"><path d="M5462.388,2008.738q.615-.078,1.218-.19a19.655,19.655,0,0,0,15.915-16.445,25.715,25.715,0,0,0-.028-6.137,6.361,6.361,0,0,0-.7-1.932,15.48,15.48,0,0,1-.867,6.537c-3.487,9.979-9.4,12.318-15.548,13.166a15.111,15.111,0,0,0-1.671.368Q5461.979,2008.791,5462.388,2008.738Z" transform="translate(-5460.703 -1984.033)" fill="none"/></clipPath><clipPath id="n"><path d="M5454.729,2020.164l-13.173-6.064a43.338,43.338,0,0,0,11.7-.371,58.056,58.056,0,0,0,11.7-3.5Z" transform="translate(-5441.556 -2010.233)" fill="none"/></clipPath><clipPath id="o"><ellipse cx="6.257" cy="6.257" rx="6.257" ry="6.257" fill="none"/></clipPath><clipPath id="q"><ellipse cx="6.343" cy="6.343" rx="6.343" ry="6.343" fill="none"/></clipPath><clipPath id="s"><path d="M5470.177,1982.3a1.642,1.642,0,1,0,1.256-1.953A1.648,1.648,0,0,0,5470.177,1982.3Z" transform="translate(-5470.14 -1980.306)" fill="none"/></clipPath><clipPath id="t"><path d="M5445.016,1986.787a1.642,1.642,0,1,0,1.257-1.952A1.649,1.649,0,0,0,5445.016,1986.787Z" transform="translate(-5444.979 -1984.799)" fill="none"/></clipPath><clipPath id="u"><path d="M5452.219,2003.021a48.035,48.035,0,0,1,4.322,3.4c.311-.155.783-1.728,2-3.126l1.115-1.9C5459.107,2001.564,5452.534,2003.12,5452.219,2003.021Z" transform="translate(-5452.219 -2001.393)" fill="none"/></clipPath><clipPath id="v"><path d="M5452.219,2003.136s3.5,1.605,4.314,2.509a14.364,14.364,0,0,1,1.832-2.582l1.207-1.41S5452.534,2003.235,5452.219,2003.136Z" transform="translate(-5452.219 -2001.652)" fill="none"/></clipPath><clipPath id="w"><path d="M5459.181,2002l-2.252,2.736-3.6-1.544a27.789,27.789,0,0,1,3.376-1.013A9.875,9.875,0,0,1,5459.181,2002Z" transform="translate(-5453.333 -2001.982)" fill="none"/></clipPath><clipPath id="x"><path d="M5452.219,2001.017a39.809,39.809,0,0,0,3.479-4.163s2.085,1.29,3.963,2.527q-.091.768-3.628.559Q5452.593,2001.326,5452.219,2001.017Z" transform="translate(-5452.219 -1996.854)" fill="none"/></clipPath><clipPath id="y"><path d="M5462.121,2016.9l1.3.7a.476.476,0,0,1,.154.753l-.928,1.109a.783.783,0,0,1-.93.172l-1.3-.7a.475.475,0,0,1-.155-.753l.929-1.108A.781.781,0,0,1,5462.121,2016.9Z" transform="translate(-5460.138 -2016.812)" fill="none"/></clipPath><clipPath id="z"><path d="M5462.814,2021.973a35.516,35.516,0,0,0,2.042,3.67q.2.16,2.217,2.216-2.838.949-4.259,0a4.371,4.371,0,0,1-1.63-3.3l1.458-2.587C5462.788,2021.718,5462.61,2021.812,5462.814,2021.973Z" transform="translate(-5461.17 -2021.815)" fill="none"/></clipPath><clipPath id="aa"><path d="M5439.725,2016.453H5452.6l-3.913,4.077Z" transform="translate(-5439.725 -2016.453)" fill="none"/></clipPath><clipPath id="ac"><path d="M5474.657,2009.034l-12.169,4.19,5.025,2.582Z" transform="translate(-5462.488 -2009.034)" fill="none"/></clipPath><clipPath id="ad"><path d="M5441.99,2015.359l-5.812.344-6.751-8.962a69.808,69.808,0,0,0,7.591,5.864Q5438.961,2013.72,5441.99,2015.359Z" transform="translate(-5429.427 -2006.741)" fill="none"/></clipPath><clipPath id="ae"><path d="M5476.049,2007.95l5.58-1.665,3.278-10.73a70.043,70.043,0,0,1-5.125,8.106Q5478.335,2005.374,5476.049,2007.95Z" transform="translate(-5476.049 -1995.555)" fill="none"/></clipPath><clipPath id="af"><path d="M5454.9,2032.141c1.343,3.007,4.814,2.736,4.814,2.736C5455.172,2035.857,5454.9,2032.141,5454.9,2032.141Zm-1.091.867c1.345,3.008,4.816,2.736,4.816,2.736C5454.083,2036.724,5453.814,2033.008,5453.814,2033.008Z" transform="translate(-5453.814 -2032.141)" fill="none"/></clipPath></defs><g transform="translate(-195 -2617)"><rect width="90" height="72" transform="translate(195 2617)" fill="none"/><g transform="translate(218.294 2625.018)"><g transform="translate(0 30.311)"><g clip-path="url(#a)"><rect width="8.713" height="16.1" transform="translate(-0.755 -0.755)" fill="#ccc"/></g></g><g transform="translate(37.839 22.504)"><g clip-path="url(#b)"><rect width="6.086" height="5.591" transform="translate(-0.755 -0.755)" fill="#ff7c1f"/></g></g><g transform="translate(35.398 0)"><g clip-path="url(#c)"><rect width="24.311" height="20.838" transform="translate(-0.755 -0.755)" fill="#f2f2f2"/></g></g><g transform="translate(34.794 0)"><g clip-path="url(#d)"><rect width="25.519" height="2.718" transform="translate(-0.755 -0.755)" fill="#404040"/></g></g><g transform="translate(34.794 18.12)"><g clip-path="url(#e)"><rect width="25.519" height="2.718" transform="translate(-0.755 -0.755)" fill="#404040"/></g></g><g transform="translate(40.079 3.02)"><g clip-path="url(#f)"><rect width="14.647" height="14.647" transform="translate(-0.755 -0.755)" fill="#9cd124"/></g></g><g transform="translate(40.079 3.02)"><g clip-path="url(#g)"><rect width="14.268" height="14.647" transform="translate(-0.755 -0.755)" fill="#009dff"/></g></g><g transform="translate(42.042 4.983)"><g clip-path="url(#h)"><rect width="10.57" height="10.57" transform="translate(-0.755 -0.755)" fill="#f2f2f2"/></g></g><g transform="translate(39.16 10.657)"><g clip-path="url(#i)"><rect width="18.76" height="3.171" transform="translate(-0.943 16.815) rotate(-73)" fill="#404040"/></g></g><g transform="translate(32.287 22.905)"><g clip-path="url(#j)"><rect width="12.884" height="11.3" transform="translate(-0.755 -0.755)" fill="#aaa"/></g></g><g transform="translate(0.827 10.526)"><g clip-path="url(#k)"><rect width="40.81" height="41.477" transform="translate(-0.755 -0.755)" fill="#ccc"/></g></g><g transform="translate(0.708 32.382)"><g clip-path="url(#l)"><rect width="25.653" height="19.621" transform="translate(-0.755 -0.755)" fill="#404040"/></g></g><g transform="translate(21.261 25.628)"><g clip-path="url(#m)"><rect width="25.653" height="19.621" transform="translate(-5.493 7.779) rotate(-20)" fill="#404040"/></g></g><g transform="translate(10.602 40.214)"><g clip-path="url(#n)"><rect width="24.911" height="11.44" transform="translate(-0.755 -0.755)" fill="#f2f2f2"/></g></g><g transform="translate(5.943 23.417)"><g clip-path="url(#o)"><rect width="14.024" height="14.024" transform="translate(-0.755 -0.755)" fill="#aaa"/></g></g><g transform="translate(6.284 23.79)"><g clip-path="url(#o)"><rect width="14.024" height="14.024" transform="translate(-0.755 -0.755)" fill="#fff"/></g></g><g transform="translate(20.515 21.319)"><g clip-path="url(#q)"><rect width="14.196" height="14.196" transform="translate(-0.755 -0.755)" fill="#aaa"/></g></g><g transform="translate(20.86 21.692)"><g clip-path="url(#q)"><rect width="14.196" height="14.196" transform="translate(-0.755 -0.755)" fill="#fff"/></g></g><g transform="translate(26.515 23.553)"><g clip-path="url(#s)"><rect width="4.793" height="4.793" transform="translate(-0.755 -0.755)" fill="#404040"/></g></g><g transform="translate(12.507 26.054)"><g clip-path="url(#t)"><rect width="4.793" height="4.793" transform="translate(-0.755 -0.755)" fill="#404040"/></g></g><g transform="translate(16.538 35.292)"><g clip-path="url(#u)"><rect width="8.951" height="6.535" transform="translate(-0.755 -0.755)" fill="#aaa"/></g></g><g transform="translate(16.538 35.437)"><g clip-path="url(#v)"><rect width="8.862" height="5.503" transform="translate(-0.755 -0.755)" fill="#f2f2f2"/></g></g><g transform="translate(17.159 35.62)"><g clip-path="url(#w)"><rect width="7.358" height="4.26" transform="translate(-0.755 -0.755)" fill="#404040"/></g></g><g transform="translate(16.538 32.765)"><g clip-path="url(#x)"><rect width="8.952" height="5.73" transform="translate(-0.755 -0.755)" fill="#fff"/></g></g><g transform="translate(20.947 43.876)"><g clip-path="url(#y)"><rect width="5.116" height="4.436" transform="translate(-1.059 -0.392) rotate(-8)" fill="#ff3652"/></g></g><g transform="translate(21.522 46.662)"><g clip-path="url(#z)"><rect width="7.413" height="8.029" transform="translate(-0.755 -0.755)" fill="#ff3652"/></g></g><g transform="translate(9.582 43.677)"><g clip-path="url(#aa)"><rect width="14.382" height="5.587" transform="translate(-0.755 -0.755)" fill="#fff"/></g></g><g transform="translate(9.582 43.677)"><g clip-path="url(#aa)"><rect width="14.382" height="5.587" transform="translate(-0.755 -0.755)" fill="#fff"/></g></g><g transform="translate(22.254 39.546)"><g clip-path="url(#ac)"><rect width="14.382" height="5.587" transform="translate(-0.96 3.723) rotate(-19)" fill="#fff"/></g></g><g transform="translate(3.849 38.27)"><g clip-path="url(#ad)"><rect width="14.073" height="10.472" transform="translate(-0.755 -0.755)" fill="#787878"/></g></g><g transform="translate(29.805 32.042)"><g clip-path="url(#ae)"><rect width="14.073" height="10.472" transform="translate(-3.915 3.846) rotate(-20)" fill="#787878"/></g></g><g transform="translate(17.426 52.41)"><g clip-path="url(#af)"><rect width="6.2" height="6.382" transform="translate(-1.323 0.337) rotate(-26)" fill="#b8b8b8"/></g></g></g></g></svg>