<svg xmlns="http://www.w3.org/2000/svg" xmlns:xlink="http://www.w3.org/1999/xlink" width="90" height="72" viewBox="0 0 90 72"><defs><clipPath id="a"><path d="M5450.644,2236.583c-1.185,3.022-.489,2.779-.489,2.779.574.388,1.732-1.513,1.806-1.67a9.422,9.422,0,0,0,.169,1.874c.793,1.863,1.687-2.3,1.687-2.3.722,2.638,1.853,2.141,1.542.637a27.1,27.1,0,0,0-1.021-4.175C5452.549,2232.57,5450.644,2236.583,5450.644,2236.583Z" transform="translate(-5449.952 -2233.516)" fill="none"/></clipPath><clipPath id="b"><path d="M5468.86,2237.107c1.184,3.022.489,2.779.489,2.779-.575.388-1.734-1.513-1.805-1.67a9.4,9.4,0,0,1-.171,1.873c-.792,1.863-1.684-2.3-1.684-2.3-.724,2.638-1.854,2.141-1.542.638a26.86,26.86,0,0,1,1.02-4.176C5466.954,2233.093,5468.86,2237.107,5468.86,2237.107Z" transform="translate(-5464.093 -2234.04)" fill="none"/></clipPath><clipPath id="c"><path d="M5428.728,2185.688c-1.055,3.164-.432,6.332.132,10.374a12.429,12.429,0,0,0,1.844,5.164,15.673,15.673,0,0,0,2.928,3.722,19.741,19.741,0,0,0,2.887,2.322,20.678,20.678,0,0,0,4.763,1.845,29.162,29.162,0,0,0,11.787-.273c.362-.095,4.349-1.048,4.73-1.195a15.943,15.943,0,0,0,6.429-5.416c.208-.347,2.349-2.971,2.135-8.948a40.653,40.653,0,0,0-.428-6.036,29.505,29.505,0,0,0-3.4-8.941,16.8,16.8,0,0,0-3.821-3.771c-2.914-2.2-8.726-3.263-11.991-3.138a22.344,22.344,0,0,0-9.188,2.58c-2.923,1.462-5.081,4.3-6.926,7.086a25.014,25.014,0,0,0-1.2,2.481" transform="translate(-5428.156 -2171.387)" fill="none"/></clipPath><clipPath id="d"><path d="M5464.788,2221.023a16.729,16.729,0,0,1-6.43,5.416c-.38.146-4.367,1.1-4.729,1.195a29.174,29.174,0,0,1-11.787.274,20.765,20.765,0,0,1-4.764-1.845,19.822,19.822,0,0,1-2.887-2.323,15.662,15.662,0,0,1-2.927-3.723,12.4,12.4,0,0,1-1.846-5.163s5.517,9.144,20.356,9.432c0,0,10.4-.17,14.755-7.325h0l1.936.357S5465.035,2220.643,5464.788,2221.023Z" transform="translate(-5429.419 -2213.781)" fill="none"/></clipPath><clipPath id="e"><path d="M5430.515,2212.32a16.056,16.056,0,0,0-8.607-2.305s-1.734.627-.328,2.23c0,0-.977,2.111,2.415,2.733,0,0,.379,1.611,2.842,1.17C5426.837,2216.148,5431.967,2215.607,5430.515,2212.32Z" transform="translate(-5421.029 -2210.008)" fill="none"/></clipPath><clipPath id="f"><ellipse cx="6.888" cy="7.025" rx="6.888" ry="7.025" fill="none"/></clipPath><clipPath id="j"><ellipse cx="1.898" cy="1.936" rx="1.898" ry="1.936" fill="none"/></clipPath><clipPath id="l"><path d="M5487.376,2210.912a16.994,16.994,0,0,1,9.049-2.328s1.869.641.441,2.269c0,0,1.127,2.148-2.452,2.776,0,0-.336,1.637-2.972,1.185C5491.443,2214.814,5485.967,2214.254,5487.376,2210.912Z" transform="translate(-5487.145 -2208.576)" fill="none"/></clipPath><clipPath id="m"><path d="M5437.783,2178.915s-4.575-4.687-5.206-.745c0,0-.709,4.465,1.341,4.586A5.622,5.622,0,0,0,5437.783,2178.915Z" transform="translate(-5432.458 -2176.592)" fill="none"/></clipPath><clipPath id="n"><path d="M5482.049,2178.915s4.576-4.687,5.206-.745c0,0,.71,4.465-1.341,4.586A5.625,5.625,0,0,1,5482.049,2178.915Z" transform="translate(-5482.049 -2176.592)" fill="none"/></clipPath><clipPath id="o"><rect width="10.531" height="10.921" fill="none"/></clipPath><clipPath id="p"><ellipse cx="5.167" cy="5.27" rx="5.167" ry="5.27" fill="none"/></clipPath><clipPath id="s"><rect width="5.851" height="5.851" fill="none"/></clipPath><clipPath id="t"><ellipse cx="2.803" cy="2.858" rx="2.803" ry="2.858" fill="none"/></clipPath><clipPath id="w"><ellipse cx="1.305" cy="1.331" rx="1.305" ry="1.331" fill="none"/></clipPath><clipPath id="x"><path d="M5455.3,2246.123c.092.619.138,1.238.17,1.856s.05,1.238.05,1.856-.018,1.238-.049,1.856-.079,1.238-.171,1.856c-.091-.619-.139-1.238-.171-1.856s-.051-1.238-.048-1.856.016-1.237.048-1.856S5455.207,2246.741,5455.3,2246.123Z" transform="translate(-5455.079 -2246.123)" fill="none"/></clipPath><clipPath id="y"><path d="M5470.674,2246.571c.072.542.111,1.086.137,1.63s.039,1.086.038,1.629-.014,1.086-.037,1.629-.065,1.086-.138,1.63c-.073-.543-.11-1.086-.138-1.63s-.039-1.086-.037-1.629.011-1.087.038-1.629S5470.6,2247.114,5470.674,2246.571Z" transform="translate(-5470.5 -2246.571)" fill="none"/></clipPath><clipPath id="z"><path d="M5452.908,2246.123a12.96,12.96,0,0,1,.225,1.719c.041.574.063,1.147.063,1.72s-.021,1.147-.063,1.72a12.945,12.945,0,0,1-.224,1.72,13.108,13.108,0,0,1-.224-1.72c-.041-.572-.065-1.146-.063-1.72s.022-1.146.064-1.72A13.274,13.274,0,0,1,5452.908,2246.123Z" transform="translate(-5452.622 -2246.123)" fill="none"/></clipPath><clipPath id="aa"><path d="M5468.715,2246.571a13.079,13.079,0,0,1,.211,1.63c.039.542.06,1.086.059,1.629s-.019,1.086-.058,1.629a12.659,12.659,0,0,1-.212,1.63,12.328,12.328,0,0,1-.213-1.63q-.06-.815-.059-1.629t.059-1.629A12.642,12.642,0,0,1,5468.715,2246.571Z" transform="translate(-5468.442 -2246.571)" fill="none"/></clipPath><clipPath id="ab"><path d="M5509.821,2204.226s2.972-3.765-2.6-5.249C5507.225,2198.977,5511.058,2200.574,5509.821,2204.226Z" transform="translate(-5507.225 -2198.977)" fill="none"/></clipPath><clipPath id="ac"><path d="M5506.492,2205.5s2.972-3.766-2.6-5.249C5503.9,2200.253,5507.728,2201.85,5506.492,2205.5Z" transform="translate(-5503.896 -2200.253)" fill="none"/></clipPath><clipPath id="ad"><path d="M5411.943,2203.478s-2.933-3.8,2.649-5.221C5414.593,2198.257,5410.745,2199.812,5411.943,2203.478Z" transform="translate(-5411.173 -2198.257)" fill="none"/></clipPath><clipPath id="ae"><path d="M5415.257,2204.788s-2.934-3.8,2.65-5.221C5417.908,2199.567,5414.058,2201.124,5415.257,2204.788Z" transform="translate(-5414.487 -2199.567)" fill="none"/></clipPath><clipPath id="af"><path d="M5453.444,2171.036c-2.861.768-2.225-.729-2.225-.729.611-.9,1.681.305,1.681.305a1.2,1.2,0,0,0-.8-1.737,1.946,1.946,0,0,0-2.329,1.313,1.686,1.686,0,0,0,.967,1.861S5451.807,2172.573,5453.444,2171.036Z" transform="translate(-5449.708 -2168.788)" fill="none"/></clipPath><clipPath id="ag"><path d="M5456.94,2169.519c-3.5-.353-2.186-1.753-2.186-1.753,1.046-.744,1.75,1.05,1.75,1.05a1.437,1.437,0,0,0-.191-2.277,2.288,2.288,0,0,0-3.13.481,2.031,2.031,0,0,0,.322,2.485S5454.489,2170.543,5456.94,2169.519Z" transform="translate(-5452.858 -2166.075)" fill="none"/></clipPath><clipPath id="ah"><path d="M5421.308,2235.756l8.386-.884v8.282l-8.386.884v-8.283" transform="translate(-5421.308 -2234.872)" fill="none" clip-rule="evenodd"/></clipPath><clipPath id="ai"><path d="M5419.639,2235.018l-2.536-1.9v6.086l2.536,4.055v-8.243" transform="translate(-5417.104 -2233.121)" fill="none" clip-rule="evenodd"/></clipPath><clipPath id="aj"><path d="M5428.026,2233.384l-4.61-1.664-6.312.654,2.506,1.882,8.417-.872" transform="translate(-5417.104 -2231.72)" fill="none" clip-rule="evenodd"/></clipPath><clipPath id="ak"><path d="M5426.228,2238.7v3.032l.434-.045a1.986,1.986,0,0,0,.789-.2.956.956,0,0,0,.369-.455,2.7,2.7,0,0,0,.131-.978,1.7,1.7,0,0,0-.3-1.176,1.183,1.183,0,0,0-.984-.225Zm-1.768-1.074,2.628-.272a3.142,3.142,0,0,1,1.254.074,1.78,1.78,0,0,1,.79.505,2.13,2.13,0,0,1,.454.844,3.919,3.919,0,0,1,.139,1.061,3.791,3.791,0,0,1-.208,1.4,2.611,2.611,0,0,1-.581.881,2.167,2.167,0,0,1-.795.524,4.406,4.406,0,0,1-1.053.26l-2.628.272Z" transform="translate(-5424.46 -2237.324)" fill="none" clip-rule="evenodd"/></clipPath><clipPath id="al"><path d="M5422.217,2233.539l.739-.079c.079-.009.223-.031.432-.068a.482.482,0,0,0,.216-.072c.035-.03.028-.06-.02-.089a.781.781,0,0,0-.34-.082,4.494,4.494,0,0,0-.712.035l-.769.082Zm-.432.988-2.229-1.346,2.916-.309c.54-.058.973-.091,1.295-.1a5.061,5.061,0,0,1,.895.05,1.711,1.711,0,0,1,.624.189c.125.074.164.146.121.214a.658.658,0,0,1-.336.191,3.968,3.968,0,0,1-.525.117c.236-.005.415,0,.538,0,.082,0,.215.018.4.04s.311.042.385.057l1.492.3-1.978.21-1.617-.312a3.876,3.876,0,0,0-.49-.07,3.227,3.227,0,0,0-.48.015l-.154.016.9.545Z" transform="translate(-5419.557 -2232.77)" fill="none" clip-rule="evenodd"/></clipPath><clipPath id="am"><path d="M5417.1,2234.872l2.341,2.223v1.129l-.786-.747v3.44l-.77-.732v-3.44l-.785-.746v-1.129" transform="translate(-5417.104 -2234.872)" fill="none" clip-rule="evenodd"/></clipPath><clipPath id="an"><path d="M5402.391,2242.768l9.135-1.59,1.591,9.135-9.136,1.591-1.59-9.136" transform="translate(-5402.391 -2241.178)" fill="none" clip-rule="evenodd"/></clipPath><clipPath id="ao"><path d="M5399.891,2242.373l-3.105-1.9,1.163,6.661,3.518,4.26-1.575-9.025" transform="translate(-5396.786 -2240.477)" fill="none" clip-rule="evenodd"/></clipPath><clipPath id="ap"><path d="M5408.877,2239.551l-5.34-1.526-6.752,1.2,3.09,1.924,9-1.595" transform="translate(-5396.786 -2238.025)" fill="none" clip-rule="evenodd"/></clipPath><clipPath id="aq"><path d="M5404.493,2245.982l1.6-.273,1.1,2.885.31-3.127,1.593-.272,1.371,2.84.046-3.082,1.588-.272-.252,5.547-1.646.282-1.55-3.2-.354,3.526-1.647.281-2.156-5.135" transform="translate(-5404.493 -2244.681)" fill="none" clip-rule="evenodd"/></clipPath><clipPath id="ar"><path d="M5402.6,2240.173a2.505,2.505,0,0,0,.943.215,5.325,5.325,0,0,0,1.129-.074,1.873,1.873,0,0,0,.777-.24c.107-.092.008-.209-.3-.348a2.439,2.439,0,0,0-.918-.2,5.46,5.46,0,0,0-1.136.078,1.782,1.782,0,0,0-.748.237C5402.239,2239.934,5402.321,2240.045,5402.6,2240.173Zm-1.918.318q-.671-.308-.2-.62a5.861,5.861,0,0,1,1.979-.563,14.816,14.816,0,0,1,2.75-.229,4.88,4.88,0,0,1,1.864.332q.48.22.422.422c-.038.134-.231.266-.576.4a9.062,9.062,0,0,1-1.551.364,17.49,17.49,0,0,1-1.881.221,10.163,10.163,0,0,1-1.581-.029A3.932,3.932,0,0,1,5400.683,2240.49Z" transform="translate(-5400.289 -2239.077)" fill="none" clip-rule="evenodd"/></clipPath><clipPath id="as"><path d="M5398.768,2246.737l.784.629a3.714,3.714,0,0,0,.189.65,1.766,1.766,0,0,0,.417.643c.12.108.2.14.252.093s.063-.139.041-.278a1.524,1.524,0,0,0-.146-.437,3.984,3.984,0,0,0-.474-.683,7.342,7.342,0,0,1-.879-1.329,4.1,4.1,0,0,1-.387-1.195,1.5,1.5,0,0,1,.009-.631.252.252,0,0,1,.281-.218,1.427,1.427,0,0,1,.638.406,4.046,4.046,0,0,1,.847,1.081,5.287,5.287,0,0,1,.5,1.445l-.777-.628a2.632,2.632,0,0,0-.208-.62,1.359,1.359,0,0,0-.3-.406c-.1-.09-.165-.118-.2-.084s-.048.1-.032.216a.95.95,0,0,0,.094.272,2.548,2.548,0,0,0,.311.442,11.8,11.8,0,0,1,.855,1.162,4.889,4.889,0,0,1,.431.877,4.365,4.365,0,0,1,.224.851,1.888,1.888,0,0,1-.007.77q-.081.281-.31.259a1.29,1.29,0,0,1-.621-.379,4.286,4.286,0,0,1-1.034-1.367,6.578,6.578,0,0,1-.494-1.542" transform="translate(-5398.537 -2243.98)" fill="none" clip-rule="evenodd"/></clipPath><clipPath id="at"><rect width="9.166" height="9.166" fill="none"/></clipPath><clipPath id="au"><path d="M5421.584,2250.613l-2.731-2.429v6.844l2.731,4.857v-9.273" transform="translate(-5418.853 -2248.184)" fill="none" clip-rule="evenodd"/></clipPath><clipPath id="av"><path d="M5430.751,2250.524l-5.021-2.34h-6.876l2.73,2.34h9.167" transform="translate(-5418.853 -2248.184)" fill="none" clip-rule="evenodd"/></clipPath><clipPath id="aw"><path d="M5429.945,2258.7l-.693-2.243-.69,2.243Zm.406,1.35h-2.208l-.3,1.03h-1.979l2.355-6.24h2.112l2.357,6.24h-2.026Z" transform="translate(-5425.862 -2254.84)" fill="none" clip-rule="evenodd"/></clipPath><clipPath id="ax"><path d="M5425.6,2248.534h1.964l1.357.938q.427.3.458.45c.02.1-.111.19-.4.261a6.028,6.028,0,0,1-1.336.107,14.669,14.669,0,0,1-1.592-.071,6.98,6.98,0,0,1-1.115-.207,3.413,3.413,0,0,1-.824-.336l1.771-.069a1.6,1.6,0,0,0,.32.171,1.881,1.881,0,0,0,.363.088,2.27,2.27,0,0,0,.353.022c.218,0,.348-.021.387-.066s-.019-.119-.17-.223l-1.54-1.064" transform="translate(-5424.112 -2248.534)" fill="none" clip-rule="evenodd"/></clipPath><clipPath id="ay"><path d="M5419.557,2250.636l1.95,2.247v1.1l-1.159-1.334v.9l.988,1.139v1.036l-.988-1.139v2.1l-.791-.913v-5.133" transform="translate(-5419.557 -2250.636)" fill="none" clip-rule="evenodd"/></clipPath><clipPath id="az"><path d="M5503.712,2244a1.762,1.762,0,1,0-1.835-1.761,1.8,1.8,0,0,0,1.835,1.761" transform="translate(-5501.877 -2240.477)" fill="none" clip-rule="evenodd"/></clipPath><clipPath id="ba"><path d="M5502.577,2234.522a9.522,9.522,0,0,1,4.464,1.862,6.484,6.484,0,0,0-2.03,1.846,1.879,1.879,0,0,0-1.2-.425,1.841,1.841,0,0,0-.285.022,7.579,7.579,0,0,0-.952-3.305" transform="translate(-5502.577 -2234.522)" fill="none" clip-rule="evenodd"/></clipPath><clipPath id="bb"><path d="M5509.163,2238.025a8.919,8.919,0,0,1,3.347,5.284,10.519,10.519,0,0,0-4.749-1.91,1.553,1.553,0,0,0,.011-.191,1.728,1.728,0,0,0-.64-1.336,6.478,6.478,0,0,1,2.031-1.846h0" transform="translate(-5507.132 -2238.025)" fill="none" clip-rule="evenodd"/></clipPath><clipPath id="bc"><path d="M5510.061,2245.892a8.633,8.633,0,0,1,.175,1.729,9.138,9.138,0,0,1-8.711,8.949c2.323-1.417,2.931-6.768,2.3-11.049a1.794,1.794,0,0,0,1.487-1.542v0a10.522,10.522,0,0,1,4.749,1.911" transform="translate(-5501.524 -2243.98)" fill="none" clip-rule="evenodd"/></clipPath><clipPath id="bd"><path d="M5494.33,2256.84c-.213.014-.428.022-.645.022a9.421,9.421,0,0,1-8.173-4.608c-.909-2.466,4.621-5.81,9.06-7.573a1.836,1.836,0,0,0,1.719,1.14,1.86,1.86,0,0,0,.338-.03c.631,4.282.022,9.633-2.3,11.049" transform="translate(-5485.413 -2244.681)" fill="none" clip-rule="evenodd"/></clipPath><clipPath id="be"><path d="M5493.878,2234.522a9.776,9.776,0,0,1,1.368.1h0a7.6,7.6,0,0,1,.952,3.3,1.835,1.835,0,0,0-1.345.929c-3.5-1.463-7.479-1.46-9.091.179a9.429,9.429,0,0,1,8.116-4.508" transform="translate(-5485.763 -2234.522)" fill="none" clip-rule="evenodd"/></clipPath><clipPath id="bf"><path d="M5483.661,2245.845a8.65,8.65,0,0,1,1.241-4.465c1.612-1.638,5.586-1.64,9.089-.178a1.7,1.7,0,0,0-.089,1.433c-4.44,1.763-9.97,5.107-9.061,7.572a8.507,8.507,0,0,1-1.18-4.362" transform="translate(-5483.661 -2240.127)" fill="none" clip-rule="evenodd"/></clipPath><clipPath id="bg"><path d="M5487.431,2240.631a9.246,9.246,0,0,1,5.2-.264,4.461,4.461,0,0,0-.551,2.779,7.841,7.841,0,0,1,.045.94,23.916,23.916,0,0,0-3.66,2.3,3.67,3.67,0,0,1-1.65-3.167,5.93,5.93,0,0,1,.615-2.585" transform="translate(-5486.814 -2240.127)" fill="none" clip-rule="evenodd"/></clipPath><clipPath id="bh"><path d="M5503.973,2251.278c1.588-1.372,3.754-3.774,3.943-5.9a9.9,9.9,0,0,1,2.058.992,7.368,7.368,0,0,1,.258,1.992,8.732,8.732,0,0,1-2.594,6.032c-2.991,2.6-4.172,2.288-6.114,2.774Q5503.881,2253.424,5503.973,2251.278Z" transform="translate(-5501.524 -2245.382)" fill="none" clip-rule="evenodd"/></clipPath><clipPath id="bi"><path d="M5485.373,2256.749a10.348,10.348,0,0,0,5.295,1.6,9.548,9.548,0,0,0,6.156-2.381c-.093,2.147-1.567,4.536-2.355,5.9a10.682,10.682,0,0,1-3.8-.434,8.2,8.2,0,0,1-5.295-4.552C5485.4,2256.633,5485.251,2257.005,5485.373,2256.749Z" transform="translate(-5485.324 -2255.971)" fill="none" clip-rule="evenodd"/></clipPath><clipPath id="bj"><path d="M5514.966,2244.03a9.926,9.926,0,0,0-2.059-.991,3.22,3.22,0,0,0,0-.445,9.266,9.266,0,0,0-.118-2.5,8.375,8.375,0,0,1,2.256,4.126" transform="translate(-5512.79 -2240.095)" fill="none" clip-rule="evenodd"/></clipPath></defs><g transform="translate(-81 -2731)"><rect width="90" height="72" transform="translate(81 2731)" fill="none"/><g transform="translate(91.595 2739.323)"><g transform="translate(29.598 37.546)"><g clip-path="url(#a)"><rect width="7.409" height="8.48" transform="translate(-0.975 -0.975)" fill="#aaa"/></g></g><g transform="translate(37.472 37.837)"><g clip-path="url(#b)"><rect width="7.409" height="8.48" transform="translate(-0.975 -0.975)" fill="#aaa"/></g></g><g transform="translate(17.464 2.957)"><g clip-path="url(#c)"><rect width="40.172" height="40.14" transform="translate(-0.975 -0.975)" fill="#ccc"/></g></g><g transform="translate(18.168 26.559)"><g clip-path="url(#d)"><rect width="38.997" height="16.539" transform="translate(-0.975 -0.975)" fill="#aaa"/></g></g><g transform="translate(13.497 24.458)"><g clip-path="url(#e)"><rect width="11.694" height="8.166" transform="translate(-0.975 -0.975)" fill="#ccc"/></g></g><g transform="translate(37.447 11.311)"><g clip-path="url(#f)"><rect width="15.726" height="16.001" transform="translate(-0.975 -0.975)" fill="#aaa"/></g></g><g transform="translate(37.447 11.85)"><g clip-path="url(#f)"><rect width="15.726" height="16.001" transform="translate(-0.975 -0.975)" fill="#fff"/></g></g><g transform="translate(22.385 11.398)"><g clip-path="url(#f)"><rect width="15.726" height="16.001" transform="translate(-0.975 -0.975)" fill="#aaa"/></g></g><g transform="translate(22.385 11.937)"><g clip-path="url(#f)"><rect width="15.726" height="16.001" transform="translate(-0.975 -0.975)" fill="#fff"/></g></g><g transform="translate(29.358 18.882)"><g clip-path="url(#j)"><rect width="5.746" height="5.822" transform="translate(-0.975 -0.975)" fill="#404040"/></g></g><g transform="translate(40.614 18.882)"><g clip-path="url(#j)"><rect width="5.746" height="5.822" transform="translate(-0.975 -0.975)" fill="#404040"/></g></g><g transform="translate(50.304 23.661)"><g clip-path="url(#l)"><rect width="12.212" height="8.268" transform="translate(-0.975 -0.975)" fill="#ccc"/></g></g><g transform="translate(19.86 5.855)"><g clip-path="url(#m)"><rect width="7.275" height="8.114" transform="translate(-0.975 -0.975)" fill="#ccc"/></g></g><g transform="translate(47.468 5.855)"><g clip-path="url(#n)"><rect width="7.275" height="8.114" transform="translate(-0.975 -0.975)" fill="#ccc"/></g></g><g transform="translate(31.593 23.089)" opacity="0.13" style="isolation:isolate"><g clip-path="url(#o)"><g transform="translate(0.012 0.194)"><g clip-path="url(#p)"><g transform="translate(-0.012 -0.194)"><g clip-path="url(#o)"><rect width="12.285" height="12.49" transform="translate(-0.963 -0.781)"/></g></g></g></g></g></g><g transform="translate(31.605 22.355)"><g clip-path="url(#p)"><rect width="12.285" height="12.49" transform="translate(-0.975 -0.975)" fill="#009dff"/></g></g><g transform="translate(34.129 26.015)" opacity="0.29" style="isolation:isolate"><g clip-path="url(#s)"><g transform="translate(0.091 0.069)"><g clip-path="url(#t)"><g transform="translate(-0.091 -0.069)"><g clip-path="url(#s)"><rect width="7.555" height="7.667" transform="translate(-0.884 -0.906)" fill="#aaa"/></g></g></g></g></g></g><g transform="translate(34.038 25.758)"><g clip-path="url(#t)"><rect width="7.555" height="7.667" transform="translate(-0.975 -0.975)" fill="#5ec0ff"/></g></g><g transform="translate(35.991 27.779)"><g clip-path="url(#w)"><rect width="4.56" height="4.612" transform="translate(-0.975 -0.975)" fill="#fff"/></g></g><g transform="translate(32.453 44.564)"><g clip-path="url(#x)"><rect width="2.39" height="9.375" transform="translate(-0.975 -0.975)" fill="#b8b8b8"/></g></g><g transform="translate(41.037 44.814)"><g clip-path="url(#y)"><rect width="2.302" height="8.469" transform="translate(-0.975 -0.975)" fill="#b8b8b8"/></g></g><g transform="translate(31.086 44.564)"><g clip-path="url(#z)"><rect width="2.524" height="8.829" transform="translate(-0.975 -0.975)" fill="#b8b8b8"/></g></g><g transform="translate(39.892 44.814)"><g clip-path="url(#aa)"><rect width="2.494" height="8.469" transform="translate(-0.975 -0.975)" fill="#b8b8b8"/></g></g><g transform="translate(61.484 18.317)"><g clip-path="url(#ab)"><rect width="5.339" height="7.199" transform="translate(-0.975 -0.975)" fill="#b8b8b8"/></g></g><g transform="translate(59.631 19.027)"><g clip-path="url(#ac)"><rect width="5.339" height="7.199" transform="translate(-0.975 -0.975)" fill="#b8b8b8"/></g></g><g transform="translate(8.009 17.916)"><g clip-path="url(#ad)"><rect width="5.37" height="7.171" transform="translate(-0.975 -0.975)" fill="#b8b8b8"/></g></g><g transform="translate(9.855 18.645)"><g clip-path="url(#ae)"><rect width="5.37" height="7.171" transform="translate(-0.975 -0.975)" fill="#b8b8b8"/></g></g><g transform="translate(29.464 1.51)"><g clip-path="url(#af)"><rect width="5.686" height="5.298" transform="translate(-0.975 -0.975)" fill="#000"/></g></g><g transform="translate(31.216 0)"><g clip-path="url(#ag)"><rect width="6.102" height="5.845" transform="translate(-0.975 -0.975)" fill="#000"/></g></g><g transform="translate(13.651 38.301)"><g clip-path="url(#ah)"><rect width="10.336" height="11.116" transform="translate(-0.975 -0.975)" fill="#a9d948"/></g></g><g transform="translate(11.311 37.326)"><g clip-path="url(#ai)"><rect width="4.485" height="12.091" transform="translate(-0.975 -0.975)" fill="#d4eca8"/></g></g><g transform="translate(11.311 36.546)"><g clip-path="url(#aj)"><rect width="12.871" height="4.485" transform="translate(-0.975 -0.975)" fill="#d4eca8"/></g></g><g transform="translate(15.407 39.666)"><g clip-path="url(#ak)"><rect width="7.216" height="7.801" transform="translate(-0.975 -0.975)" fill="#009dff"/></g></g><g transform="translate(12.677 37.131)"><g clip-path="url(#al)"><rect width="9.751" height="3.705" transform="translate(-0.975 -0.975)" fill="#5ec0ff"/></g></g><g transform="translate(11.311 38.301)"><g clip-path="url(#am)"><rect width="4.29" height="7.996" transform="translate(-0.975 -0.975)" fill="#5ec0ff"/></g></g><g transform="translate(3.121 41.811)"><g clip-path="url(#an)"><rect width="12.676" height="12.676" transform="translate(-0.975 -0.975)" fill="#ff3652"/></g></g><g transform="translate(0 41.421)"><g clip-path="url(#ao)"><rect width="6.631" height="12.871" transform="translate(-0.975 -0.975)" fill="#ff647b"/></g></g><g transform="translate(0 40.056)"><g clip-path="url(#ap)"><rect width="14.041" height="5.071" transform="translate(-0.975 -0.975)" fill="#ff647b"/></g></g><g transform="translate(4.291 43.761)"><g clip-path="url(#aq)"><rect width="9.556" height="8.386" transform="translate(-0.975 -0.975)" fill="#ffe539"/></g></g><g transform="translate(1.95 40.641)"><g clip-path="url(#ar)"><rect width="9.166" height="3.705" transform="translate(-0.975 -0.975)" fill="#fff3ab"/></g></g><g transform="translate(0.975 43.371)"><g clip-path="url(#as)"><rect width="4.68" height="7.996" transform="translate(-0.975 -0.975)" fill="#fff3ab"/></g></g><g transform="translate(15.212 48.052)"><g clip-path="url(#at)"><rect width="11.116" height="11.116" transform="translate(-0.975 -0.975)" fill="#ffe539"/></g></g><g transform="translate(12.286 45.712)"><g clip-path="url(#au)"><rect width="4.68" height="13.651" transform="translate(-0.975 -0.975)" fill="#fff3ab"/></g></g><g transform="translate(12.286 45.712)"><g clip-path="url(#av)"><rect width="13.846" height="4.29" transform="translate(-0.975 -0.975)" fill="#fff3ab"/></g></g><g transform="translate(16.187 49.417)"><g clip-path="url(#aw)"><rect width="8.776" height="8.191" transform="translate(-0.975 -0.975)" fill="#ff3652"/></g></g><g transform="translate(15.212 45.907)"><g clip-path="url(#ax)"><rect width="7.216" height="3.705" transform="translate(-0.975 -0.975)" fill="#ff647b"/></g></g><g transform="translate(12.676 47.077)"><g clip-path="url(#ay)"><rect width="3.9" height="7.996" transform="translate(-0.975 -0.975)" fill="#ff647b"/></g></g><g transform="translate(58.506 41.421)"><g clip-path="url(#az)"><rect width="5.622" height="5.472" transform="translate(-0.975 -0.975)" fill="#a9d948"/></g></g><g transform="translate(58.896 38.106)"><g clip-path="url(#ba)"><rect width="6.414" height="5.658" transform="translate(-0.975 -0.975)" fill="#a9d948"/></g></g><g transform="translate(61.431 40.056)"><g clip-path="url(#bb)"><rect width="7.329" height="7.234" transform="translate(-0.975 -0.975)" fill="#ffe539"/></g></g><g transform="translate(58.311 43.371)"><g clip-path="url(#bc)"><rect width="10.66" height="14.541" transform="translate(-0.975 -0.975)" fill="#a9d948"/></g></g><g transform="translate(49.34 43.761)"><g clip-path="url(#bd)"><rect width="13.4" height="14.131" transform="translate(-0.975 -0.975)" fill="#ffe539"/></g></g><g transform="translate(49.535 38.106)"><g clip-path="url(#be)"><rect width="12.386" height="6.458" transform="translate(-0.975 -0.975)" fill="#ffe539"/></g></g><g transform="translate(48.365 41.226)"><g clip-path="url(#bf)"><rect width="12.28" height="12.031" transform="translate(-0.975 -0.975)" fill="#a9d948"/></g></g><g transform="translate(50.12 41.226)"><g clip-path="url(#bg)"><rect width="7.769" height="8.206" transform="translate(-0.975 -0.975)" fill="#a9d948"/></g></g><g transform="translate(58.311 44.152)"><g clip-path="url(#bh)"><rect width="10.657" height="13.741" transform="translate(-0.975 -0.975)" fill="#6da42d"/></g></g><g transform="translate(49.291 50.047)"><g clip-path="url(#bi)"><rect width="13.449" height="7.906" transform="translate(-0.975 -0.975)" fill="#bfa124"/></g></g><g transform="translate(64.581 41.208)"><g clip-path="url(#bj)"><rect width="4.207" height="6.076" transform="translate(-0.975 -0.975)" fill="#bfa124"/></g></g></g></g></svg>